<svg style="width: 2.8173828125em;height: 1em;vertical-align: middle;fill: currentColor;overflow: hidden;" viewBox="0 0 2885 1024" version="1.1" xmlns="http://www.w3.org/2000/svg"><path d="M11.702857 11.702857h2861.758172v1000.594286H11.702857z" fill="#00FFD2" opacity=".11" /><path d="M2861.758171 23.405714v977.188572H23.405714V23.405714h2838.352457m23.405715-23.405714H0v1024h2885.163886V0z" fill="#00FFD2" opacity=".11" /><path d="M2861.758171 23.405714v977.188572H23.405714V23.405714h2838.352457m23.405715-23.405714H0v1024h2885.163886V0z" fill="#00FFD2" /><path d="M1928.104229 788.0704a894.858971 894.858971 0 0 1-129.199543-101.931886c-36.395886 36.395886-80.574171 68.8128-137.684115 104.565029l-41.603657-59.743086c-9.713371 14.921143-20.128914 31.1296-32.475428 48.040229l-47.396572-45.4656V789.942857h-75.307885V547.167086a675.664457 675.664457 0 0 1-48.7424 89.585371l-49.386058-56.466286a752.142629 752.142629 0 0 0 96.548572-189.001142h-62.727314V322.413714h64.365714V208.778971l75.307886 3.218286V322.413714h64.950857v68.871315h-64.950857v52.662857l20.128914-18.197943a1046.528 1046.528 0 0 1 68.871314 83.792457L1578.715429 561.737143c-10.415543-17.554286-24.049371-38.326857-38.970515-58.514286v214.337829c76.068571-103.921371 98.7136-178.000457 105.852343-318.902857l3.2768-92.862172h-46.109257v-74.313143h294.209829v74.079086l-45.4656 87.010743h78.584685v72.733257c-23.405714 65.594514-48.7424 118.198857-83.1488 164.951771a623.586743 623.586743 0 0 0 127.912229 91.574858z m-177.941943-157.988571A458.3424 458.3424 0 0 1 1698.845257 544.182857a548.981029 548.981029 0 0 1-72.733257 176.654629 674.6112 674.6112 0 0 0 124.050286-90.580115z m-31.188115-324.695772c-0.643657 27.911314-2.574629 64.365714-3.218285 92.218514 20.128914 72.0896 45.4656 127.912229 81.92 177.298286A492.222171 492.222171 0 0 0 1854.902857 465.949257h-84.611657V399.067429l49.386057-93.622858zM2126.877257 518.5536c-29.842286-27.911314-83.090286-72.0896-112.347428-94.793143L2060.639086 356.937143c29.257143 20.772571 85.079771 64.892343 114.980571 89.585371z m11.702857 31.831771l42.247315 12.990172c-10.415543 38.970514-51.960686 172.792686-67.584 220.189257l-76.5952-24.049371c18.139429-49.327543 55.822629-170.8032 68.8128-220.189258z m12.990172-182.506057c-27.267657-23.990857-79.872-68.8128-105.852343-89.585371l46.109257-63.663543c24.693029 19.485257 77.941029 61.0304 109.129143 88.941714z m442.309485 42.247315v55.822628h-416.329142v-55.822628h163.84v-20.772572H2217.691429v-54.593828h123.406628v-20.772572h-139.498057v-57.168457h139.615086v-44.119771l74.722743 3.218285v40.96h150.030628v57.168457h-150.030628v20.772572H2551.222857v54.593828h-135.285028v20.772572z m-383.853714 79.228342h336.457143v222.763886c0 51.317029-15.623314 70.217143-61.732571 73.376914L2434.194286 789.942857l-20.128915-61.088914 40.257829-3.861943c20.128914-2.574629 20.831086-5.851429 20.831086-22.059886v-3.920457h-193.097143v87.771429h-72.031086zM2282.057143 545.821257v19.485257h193.097143v-19.485257z m193.097143 95.495314v-20.772571h-193.097143v20.772571zM730.492343 666.711771h-60.035657v117.028572H560.625371v-117.028572H316.562286V554.539886l220.3648-319.136915h133.5296v334.116572h60.035657z m-169.691429-97.192228V353.8944H555.885714l-142.1312 210.651429v4.739657zM1278.712686 783.623314h-145.349486l-161.148343-239.908571h-29.257143v239.908571h-120.0128V235.402971h120.0128v210.944h29.257143l157.988572-210.944h140.434285L1070.811429 489.764571z" fill="#00FFD2" /></svg>
